<svg width="32" height="32" viewBox="0 0 32 32" fill="none" xmlns="http://www.w3.org/2000/svg">
  <rect width="32" height="32" rx="6" fill="#3776ab"/>
  <path d="M16 6c-3.314 0-6 2.686-6 6v2h6v2H8c-1.104 0-2 .896-2 2v4c0 1.104.896 2 2 2h3v-3c0-1.656 1.344-3 3-3h6c1.104 0 2-.896 2-2v-4c0-3.314-2.686-6-6-6zm-2 3c.552 0 1 .448 1 1s-.448 1-1 1-1-.448-1-1 .448-1 1-1z" fill="#ffd43b"/>
  <path d="M16 26c3.314 0 6-2.686 6-6v-2h-6v-2h8c1.104 0 2-.896 2-2v-4c0-1.104-.896-2-2-2h-3v3c0 1.656-1.344 3-3 3h-6c-1.104 0-2 .896-2 2v4c0 3.314 2.686 6 6 6zm2-3c-.552 0-1-.448-1-1s.448-1 1-1 1 .448 1 1-.448 1-1 1z" fill="#3776ab"/>
</svg> 